<?xml version="1.0" encoding="UTF-8"?>
<svg id="Calque_2" data-name="Calque 2" xmlns="http://www.w3.org/2000/svg" viewBox="0 0 642.78 468.39">
  <defs>
    <style>
      .cls-1 {
        fill: #0c3976;
      }
    </style>
  </defs>
  <g id="Calque_1-2" data-name="Calque 1">
    <g id="Calque_1-3" data-name="Calque 1">
      <path id="Tracé_20" data-name="Tracé 20" class="cls-1" d="M618.59,153.8c-17.97-12.54-37.18-15.6-57.63-9.17-13.25,4.16-25.11,12.96-38.11,16-29.4,6.85-52.76-7.75-69.24-31.41-18.3-26.25-38.73-57-74.6-56.58-21.25,.23-35.49,12.1-52.71,24.56-7.56,5.47-13.15,9.07-16.77,10.8-37.49,17.95-70.31-8.77-94.01-34.91-14.5-16.05-27.11-29.3-37.83-39.76C158.07,14.01,132.66,.86,104.56,.05,74.94-.8,45.78,9,24.27,29.92-14.76,67.89-2.71,125.74,32.06,161.85c6.76,7.02,18.3,16.08,26.5,24.41,17.71,18.01,14.68,36.91,13.16,61.32-1.04,16.43,1.18,33.35,6.66,50.74,12.62,40.07,44.85,62.11,85.81,62.89,18.41,.36,39.12-1.98,56.08,5.35,23.56,10.12,28.82,38.12,41.94,56.36,26.83,37.38,75.64,57.62,119.53,37.6,33.55-15.31,54.4-53.26,73.76-82.78,8.66-13.2,20.8-25.82,35.49-32.2,7.1-3.13,14.36-5.89,21.75-8.26,47.59-15.03,90.44-40.84,115.77-84.8,17.73-30.84,23.51-75.35-9.94-98.68Z"/>
    </g>
  </g>
</svg>