<?xml version="1.0" encoding="UTF-8"?>
<svg id="Calque_2" data-name="Calque 2" xmlns="http://www.w3.org/2000/svg" viewBox="0 0 533.43 560.42">
  <defs>
    <style>
      .cls-1 {
        fill: #0c3976;
      }
    </style>
  </defs>
  <g id="Calque_1-2" data-name="Calque 1">
    <g id="Calque_1-2" data-name="Calque 1-2">
      <path id="Tracé_20-2" data-name="Tracé 20-2" class="cls-1" d="M529.92,443.8c-7.52-20.58-21.49-34.11-41.92-40.58-13.24-4.2-28-3.8-40.38-8.77-28-11.26-38.75-36.62-38.67-65.45,.08-32,1-68.9-28.61-89.14-17.53-12-36-10.46-57.25-10.14-9.33,.14-15.98-.12-19.93-.78-41-6.82-52.54-47.53-56.94-82.53-2.67-21.46-5.39-39.55-8.16-54.27-5-27.08-18.25-52.43-40.8-69.22C173.5,5.23,144-3.48,114.38,1.3,60.63,10,37.3,64.28,45.05,113.8c1.51,9.63,5.76,23.67,7.69,35.2,4.17,24.91-9.16,38.65-24.41,57.76-10.28,12.86-18.17,27.98-23.67,45.37-12.66,40.05,1.08,76.59,34.17,100.74,14.87,10.86,33.17,20.83,42.85,36.56,13.48,21.81,1.72,47.75,2,70.22,.52,46,28.87,90.59,76.3,99.38,36.26,6.72,75.11-12.39,107.9-25.45,14.67-5.84,31.85-9.21,47.54-6,7.61,1.51,15.14,3.42,22.55,5.72,47.59,15,97.49,18.46,143.46-3,32.22-15.08,62.49-48.21,48.49-86.5Z"/>
    </g>
  </g>
</svg>