<?xml version="1.0" encoding="UTF-8"?>
<svg id="Calque_2" data-name="Calque 2" xmlns="http://www.w3.org/2000/svg" viewBox="0 0 300.03 77.98">
  <defs>
    <style>
      .cls-1 {
        fill: #1e3b71;
      }
    </style>
  </defs>
  <g id="Calque_1-2" data-name="Calque 1">
    <g>
      <g>
        <path class="cls-1" d="m.8,19.6c5.32,16.5,10.2,32.91,15.35,49.34l2.4,8.07c.17.62.7.97,1.33.97h6.03c.63,0,1.07-.53,1.24-1.24l6.38-21.29,2.66-8.79c2.93-9.85,6.93-22.89,8.88-29.45.17-.71-.63-1.33-1.34-1.33h-10.82c-.71,0-.97.62-1.24,1.33-1.06,3.19-8.6,28.65-12.86,42.94-4.35-14.02-8.96-27.96-13.04-41.97-.63-2.13-1.24-2.3-1.87-2.3H.99c-1.33,0-1.24.44-.18,3.72Z"/>
        <path class="cls-1" d="m35.71,55.44c2.13,7.1,4.35,14.19,6.48,21.29.17.71.62,1.24,1.24,1.24h10.82c.71,0,1.07-.53,1.33-1.24,1.43-3.72,20.49-67.16,22.89-75.41C78.65.62,77.95,0,77.24,0h-10.92c-.7,0-1.06.62-1.23,1.33-.99,3.19-15.17,49.68-20.23,66.62l-6.48-21.29-2.66,8.79Z"/>
      </g>
      <path class="cls-1" d="m100.68,56.11c-.19-.93-.5-1.8-.93-2.6-.44-.8-.95-1.49-1.54-2.07-.59-.58-1.25-1.04-1.98-1.37-.73-.33-1.48-.5-2.26-.5h-6.9c-1.65,0-2.97.52-3.96,1.56-.99,1.04-1.75,2.39-2.26,4.06-.51,1.67-.84,3.54-.98,5.62-.14,2.08-.19,4.17-.16,6.27.03,2.1.11,4.11.23,6.03.12,1.92.19,3.55.19,4.88h-8.67v-19.69c0-2.71.41-5.27,1.23-7.66.82-2.4,1.95-4.48,3.38-6.25,1.43-1.77,3.08-3.17,4.96-4.21,1.88-1.04,3.89-1.56,6.03-1.56h6.9c2.14,0,4.16.52,6.06,1.56,1.89,1.04,3.55,2.45,4.96,4.21,1.41,1.77,2.53,3.85,3.35,6.25.82,2.4,1.23,4.95,1.23,7.66v8.78h-27.72v-8.78c0-.35.04-.73.12-1.12.08-.39.15-.75.21-1.06h18.5Zm8.9,13.15v8.72h-8.67v-8.72h8.67Z"/>
      <path class="cls-1" d="m126.21,49.51v3.3h17.28c3.6,0,6.23,1.03,7.9,3.09,1.66,2.06,2.49,5.39,2.49,9.99,0,1.65-.19,3.2-.56,4.66-.37,1.45-.92,2.73-1.65,3.83-.73,1.1-1.63,1.97-2.7,2.62-1.07.65-2.31.97-3.7.97h-27.72v-10.96h27.72v-3.24h-19.05c-1.4,0-2.63-.32-3.7-.97-1.07-.65-1.97-1.52-2.7-2.62-.73-1.1-1.29-2.38-1.68-3.83-.39-1.45-.58-3.01-.58-4.66s.15-3.39.47-4.98c.31-1.59.82-2.99,1.51-4.19.7-1.2,1.6-2.16,2.7-2.89,1.1-.73,2.43-1.09,3.98-1.09h27.67v10.96h-27.67Z"/>
      <path class="cls-1" d="m191.06,56.11c-.19-.93-.5-1.8-.93-2.6-.44-.8-.95-1.49-1.54-2.07-.59-.58-1.25-1.04-1.98-1.37-.73-.33-1.48-.5-2.26-.5h-6.9c-1.65,0-2.97.52-3.96,1.56-.99,1.04-1.75,2.39-2.26,4.06-.51,1.67-.84,3.54-.98,5.62-.14,2.08-.19,4.17-.16,6.27.03,2.1.11,4.11.23,6.03.12,1.92.19,3.55.19,4.88h-8.67v-19.69c0-2.71.41-5.27,1.23-7.66.82-2.4,1.95-4.48,3.38-6.25,1.43-1.77,3.08-3.17,4.96-4.21,1.88-1.04,3.89-1.56,6.03-1.56h6.9c2.14,0,4.16.52,6.06,1.56,1.89,1.04,3.55,2.45,4.96,4.21,1.41,1.77,2.53,3.85,3.35,6.25.82,2.4,1.23,4.95,1.23,7.66v8.78h-27.72v-8.78c0-.35.04-.73.12-1.12.08-.39.15-.75.21-1.06h18.5Zm8.9,13.15v8.72h-8.67v-8.72h8.67Z"/>
      <path class="cls-1" d="m237.37,77.98h-29.44v-39.44h8.67v28.47h20.78v10.96Z"/>
      <path class="cls-1" d="m254,77.98h-8.67v-39.44h8.67v39.44Zm29.4,0h-8.62l-19.05-22.46v-14.91l19.05,22.52v-24.58h8.62v39.44Z"/>
      <path class="cls-1" d="m300.03,77.98h-8.67v-39.44h8.67v39.44Z"/>
    </g>
  </g>
</svg>